# Blender 4.3.0
# www.blender.org
mtllib background.mtl
o Plane
v -10.000000 0.000000 -10.000000
v 10.000000 0.000000 -10.000000
v -3.333333 0.000000 10.000000
v -1.111111 0.000000 10.000000
v 1.111111 0.000000 10.000000
v 3.333333 0.000000 10.000000
v 7.777778 0.000000 -10.000000
v 5.555555 0.000000 -10.000000
v 3.333333 0.000000 -10.000000
v 1.111111 0.000000 -10.000000
v -1.111111 0.000000 -10.000000
v -3.333333 0.000000 -10.000000
v -5.555556 0.000000 -10.000000
v -7.777778 0.000000 -10.000000
v -10.000000 0.000000 -7.777778
v -10.000000 0.000000 -5.555555
v -10.000000 0.000000 -3.333333
v -10.000000 0.000000 -1.111111
v -10.000000 0.000000 1.111111
v -10.000000 0.000000 3.333333
v -10.000000 0.000000 5.555556
v 10.000000 0.000000 5.555555
v 10.000000 0.000000 3.333333
v 10.000000 0.000000 1.111111
v 10.000000 0.000000 -1.111111
v 10.000000 0.000000 -3.333333
v 10.000000 0.000000 -5.555556
v 10.000000 0.000000 -7.777778
v -7.777778 0.000000 5.555555
v -7.777778 0.000000 3.333333
v -7.777778 0.000000 1.111111
v -7.777778 0.000000 -1.111111
v -7.777778 0.000000 -3.333333
v -7.777778 0.000000 -5.555556
v -7.777778 0.000000 -7.777778
v -5.555555 0.000000 5.555555
v -5.555555 0.000000 3.333333
v -5.555555 0.000000 1.111111
v -5.555555 0.000000 -1.111111
v -5.555555 0.000000 -3.333333
v -5.555555 0.000000 -5.555556
v -5.555555 0.000000 -7.777778
v -3.333333 0.000000 7.777778
v -3.333333 0.000000 5.555555
v -3.333333 0.000000 3.333333
v -3.333333 0.000000 1.111111
v -3.333333 0.000000 -1.111111
v -3.333333 0.000000 -3.333333
v -3.333333 0.000000 -5.555556
v -3.333333 0.000000 -7.777778
v -1.111111 0.000000 7.777778
v -1.111111 0.000000 5.555555
v -1.111111 0.000000 3.333333
v -1.111111 0.000000 1.111111
v -1.111111 0.000000 -1.111111
v -1.111111 0.000000 -3.333333
v -1.111111 0.000000 -5.555556
v -1.111111 0.000000 -7.777778
v 1.111111 0.000000 7.777778
v 1.111111 0.000000 5.555555
v 1.111111 0.000000 3.333333
v 1.111111 0.000000 1.111111
v 1.111111 0.000000 -1.111111
v 1.111111 0.000000 -3.333333
v 1.111111 0.000000 -5.555556
v 1.111111 0.000000 -7.777778
v 3.333333 0.000000 7.777778
v 3.333333 0.000000 5.555555
v 3.333333 0.000000 3.333333
v 3.333333 0.000000 1.111111
v 3.333333 0.000000 -1.111111
v 3.333333 0.000000 -3.333333
v 3.333333 0.000000 -5.555556
v 3.333333 0.000000 -7.777778
v 5.555556 0.000000 5.555555
v 5.555556 0.000000 3.333333
v 5.555556 0.000000 1.111111
v 5.555556 0.000000 -1.111111
v 5.555556 0.000000 -3.333333
v 5.555556 0.000000 -5.555556
v 5.555555 0.000000 -7.777778
v 7.777778 0.000000 5.555555
v 7.777778 0.000000 3.333333
v 7.777778 0.000000 1.111111
v 7.777778 0.000000 -1.111111
v 7.777778 0.000000 -3.333333
v 7.777778 0.000000 -5.555556
v 7.777778 0.000000 -7.777778
v -10.000000 5.000000 -10.000000
v 10.000000 5.000000 -10.000000
v -3.333333 5.000000 10.000000
v -1.111111 5.000000 10.000000
v 1.111111 5.000000 10.000000
v 3.333333 5.000000 10.000000
v 7.777778 5.000000 -10.000000
v 5.555555 5.000000 -10.000000
v 3.333333 5.000000 -10.000000
v 1.111111 5.000000 -10.000000
v -1.111111 5.000000 -10.000000
v -3.333333 5.000000 -10.000000
v -5.555556 5.000000 -10.000000
v -7.777778 5.000000 -10.000000
v -10.000000 5.000000 -7.777778
v -10.000000 5.000000 -5.555555
v -10.000000 5.000000 -3.333333
v -10.000000 5.000000 -1.111111
v -10.000000 5.000000 1.111111
v -10.000000 5.000000 3.333333
v -10.000000 5.000000 5.555556
v 10.000000 5.000000 5.555555
v 10.000000 5.000000 3.333333
v 10.000000 5.000000 1.111111
v 10.000000 5.000000 -1.111111
v 10.000000 5.000000 -3.333333
v 10.000000 5.000000 -5.555556
v 10.000000 5.000000 -7.777778
v -7.777778 5.000000 5.555555
v -5.555555 5.000000 5.555555
v -3.333333 5.000000 7.777778
v -3.333333 5.000000 5.555555
v 3.333333 5.000000 7.777778
v 3.333333 5.000000 5.555555
v 5.555556 5.000000 5.555555
v 7.777778 5.000000 5.555555
vn -0.0000 1.0000 -0.0000
vn 1.0000 -0.0000 -0.0000
vn -0.0000 -0.0000 1.0000
vn -0.0000 -0.0000 -1.0000
vn -1.0000 -0.0000 -0.0000
vt 0.571429 0.071429
vt 0.642857 0.000000
vt 0.642857 0.071429
vt 0.571429 0.642857
vt 0.642857 0.571429
vt 0.642857 0.642857
vt 0.571429 0.571429
vt 0.642857 0.500000
vt 0.571429 0.500000
vt 0.642857 0.428571
vt 0.571429 0.428571
vt 0.642857 0.357143
vt 0.571429 0.357143
vt 0.642857 0.285714
vt 0.571429 0.285714
vt 0.642857 0.214286
vt 0.571429 0.214286
vt 0.642857 0.142857
vt 0.571429 0.142857
vt 0.142857 0.142857
vt 0.214286 0.071429
vt 0.214286 0.142857
vt 0.285714 0.071429
vt 0.285714 0.142857
vt 0.357143 0.071429
vt 0.357143 0.142857
vt 0.428571 0.071429
vt 0.428571 0.142857
vt 0.500000 0.071429
vt 0.500000 0.142857
vt 0.142857 0.214286
vt 0.214286 0.214286
vt 0.285714 0.214286
vt 0.357143 0.214286
vt 0.428571 0.214286
vt 0.500000 0.214286
vt 0.000000 0.285714
vt 0.071429 0.214286
vt 0.071429 0.285714
vt 0.142857 0.285714
vt 0.214286 0.285714
vt 0.285714 0.285714
vt 0.357143 0.285714
vt 0.428571 0.285714
vt 0.500000 0.285714
vt 0.000000 0.357143
vt 0.071429 0.357143
vt 0.142857 0.357143
vt 0.214286 0.357143
vt 0.285714 0.357143
vt 0.357143 0.357143
vt 0.428571 0.357143
vt 0.500000 0.357143
vt -0.000000 0.428571
vt 0.071429 0.428571
vt 0.142857 0.428571
vt 0.214286 0.428571
vt 0.285714 0.428571
vt 0.357143 0.428571
vt 0.428571 0.428571
vt 0.500000 0.428571
vt 0.142857 0.500000
vt 0.214286 0.500000
vt 0.285714 0.500000
vt 0.357143 0.500000
vt 0.428571 0.500000
vt 0.500000 0.500000
vt 0.142857 0.571429
vt 0.214286 0.571429
vt 0.285714 0.571429
vt 0.357143 0.571429
vt 0.428571 0.571429
vt 0.500000 0.571429
vt 0.142857 0.642857
vt 0.214286 0.642857
vt 0.285714 0.642857
vt 0.357143 0.642857
vt 0.428571 0.642857
vt 0.500000 0.642857
vt 0.142857 0.071429
vt 0.214286 -0.000000
vt 0.285714 -0.000000
vt 0.357143 -0.000000
vt 0.428571 0.000000
vt 0.500000 0.000000
vt 0.571429 0.000000
vt 0.964286 0.357143
vt 0.803572 0.428571
vt 0.803572 0.357143
vt 0.803571 0.285714
vt 0.642857 0.357143
vt 0.642857 0.285714
vt 0.160714 0.714286
vt 0.000000 0.785714
vt 0.000000 0.714286
vt 0.964286 0.285714
vt 0.803572 0.285714
vt 0.803571 0.214286
vt 0.642857 0.214286
vt 0.964286 0.214286
vt 0.803572 0.214286
vt 0.803571 0.142857
vt 0.642857 0.142857
vt 0.964286 0.142857
vt 0.803572 0.142857
vt 0.803571 0.071429
vt 0.642857 0.071429
vt 0.964286 0.071429
vt 0.803572 0.071429
vt 0.964286 0.500000
vt 0.803572 0.571429
vt 0.803572 0.500000
vt 0.964286 0.000000
vt 0.803572 -0.000000
vt 0.321429 0.714286
vt 0.160714 0.785714
vt 0.160714 0.714286
vt 0.803571 -0.000000
vt 0.642857 -0.000000
vt 0.964286 0.928572
vt 0.803572 1.000000
vt 0.803572 0.928572
vt 0.160714 0.642857
vt 0.000000 0.642857
vt 0.482143 0.785714
vt 0.321429 0.857143
vt 0.321429 0.785714
vt 0.964286 0.857143
vt 0.803572 0.857143
vt 0.553572 0.803571
vt 0.482143 0.642857
vt 0.553572 0.642857
vt 0.482143 0.714286
vt 0.321429 0.714286
vt 0.160714 0.785714
vt -0.000000 0.857143
vt 0.964286 0.785714
vt 0.803572 0.785714
vt 0.625000 0.803571
vt 0.625000 0.642857
vt 0.482143 0.642857
vt 0.321429 0.642857
vt 0.964286 0.714286
vt 0.803572 0.714286
vt 0.803571 0.571429
vt 0.642857 0.571429
vt 0.964286 0.642857
vt 0.803572 0.642857
vt 0.767857 0.803571
vt 0.696429 0.642857
vt 0.767857 0.642857
vt 0.803571 0.500000
vt 0.642857 0.500000
vt 0.964286 0.571429
vt 0.696429 0.803571
vt 0.625000 0.642857
vt 0.803571 0.428571
vt 0.642857 0.428571
vt 0.321429 0.642857
vt 0.160714 0.642857
vt 0.964286 0.428571
vt 0.803572 0.500000
vt 0.321429 0.785714
vt 0.160714 0.857143
vt 0.803571 0.357143
vt 0.000000 0.214286
vt 0.142857 -0.000000
vt 0.964286 1.000000
vt 0.482143 0.857143
vt 0.482143 0.803571
vt 0.160714 0.857143
vt 0.803571 0.642857
vt 0.625000 0.803571
vt 0.964286 0.500000
vt 0.321429 0.857143
s 0
usemtl Material.001
f 88/1/1 2/2/1 7/3/1
f 15/4/1 14/5/1 1/6/1
f 35/7/1 13/8/1 14/5/1
f 42/9/1 12/10/1 13/8/1
f 50/11/1 11/12/1 12/10/1
f 58/13/1 10/14/1 11/12/1
f 66/15/1 9/16/1 10/14/1
f 74/17/1 8/18/1 9/16/1
f 81/19/1 7/3/1 8/18/1
f 75/20/1 83/21/1 76/22/1
f 76/22/1 84/23/1 77/24/1
f 77/24/1 85/25/1 78/26/1
f 78/26/1 86/27/1 79/28/1
f 79/28/1 87/29/1 80/30/1
f 80/30/1 88/1/1 81/19/1
f 68/31/1 76/22/1 69/32/1
f 69/32/1 77/24/1 70/33/1
f 70/33/1 78/26/1 71/34/1
f 71/34/1 79/28/1 72/35/1
f 72/35/1 80/30/1 73/36/1
f 73/36/1 81/19/1 74/17/1
f 5/37/1 67/38/1 59/39/1
f 59/39/1 68/31/1 60/40/1
f 60/40/1 69/32/1 61/41/1
f 61/41/1 70/33/1 62/42/1
f 62/42/1 71/34/1 63/43/1
f 63/43/1 72/35/1 64/44/1
f 64/44/1 73/36/1 65/45/1
f 65/45/1 74/17/1 66/15/1
f 4/46/1 59/39/1 51/47/1
f 51/47/1 60/40/1 52/48/1
f 52/48/1 61/41/1 53/49/1
f 53/49/1 62/42/1 54/50/1
f 54/50/1 63/43/1 55/51/1
f 55/51/1 64/44/1 56/52/1
f 56/52/1 65/45/1 57/53/1
f 57/53/1 66/15/1 58/13/1
f 3/54/1 51/47/1 43/55/1
f 43/55/1 52/48/1 44/56/1
f 44/56/1 53/49/1 45/57/1
f 45/57/1 54/50/1 46/58/1
f 46/58/1 55/51/1 47/59/1
f 47/59/1 56/52/1 48/60/1
f 48/60/1 57/53/1 49/61/1
f 49/61/1 58/13/1 50/11/1
f 36/62/1 45/57/1 37/63/1
f 37/63/1 46/58/1 38/64/1
f 38/64/1 47/59/1 39/65/1
f 39/65/1 48/60/1 40/66/1
f 40/66/1 49/61/1 41/67/1
f 41/67/1 50/11/1 42/9/1
f 29/68/1 37/63/1 30/69/1
f 30/69/1 38/64/1 31/70/1
f 31/70/1 39/65/1 32/71/1
f 32/71/1 40/66/1 33/72/1
f 33/72/1 41/67/1 34/73/1
f 34/73/1 42/9/1 35/7/1
f 21/74/1 30/69/1 20/75/1
f 20/75/1 31/70/1 19/76/1
f 19/76/1 32/71/1 18/77/1
f 18/77/1 33/72/1 17/78/1
f 17/78/1 34/73/1 16/79/1
f 16/79/1 35/7/1 15/4/1
f 82/80/1 23/81/1 83/21/1
f 83/21/1 24/82/1 84/23/1
f 84/23/1 25/83/1 85/25/1
f 85/25/1 26/84/1 86/27/1
f 86/27/1 27/85/1 87/29/1
f 87/29/1 28/86/1 88/1/1
f 16/87/2 103/88/2 104/89/2
f 11/90/3 98/91/3 99/92/3
f 82/93/4 123/94/4 124/95/4
f 17/96/2 104/89/2 105/97/2
f 12/98/3 99/92/3 100/99/3
f 18/100/2 105/97/2 106/101/2
f 13/102/3 100/99/3 101/103/3
f 19/104/2 106/101/2 107/105/2
f 14/106/3 101/103/3 102/107/3
f 20/108/2 107/105/2 108/109/2
f 2/110/5 116/111/5 90/112/5
f 21/113/2 108/109/2 109/114/2
f 36/115/4 117/116/4 118/117/4
f 1/118/3 102/107/3 89/119/3
f 23/120/5 110/121/5 111/122/5
f 22/123/4 124/95/4 110/124/4
f 4/125/4 91/126/4 92/127/4
f 24/128/5 111/122/5 112/129/5
f 67/130/5 94/131/5 121/132/5
f 5/133/4 92/127/4 93/134/4
f 75/135/4 122/136/4 123/94/4
f 25/137/5 112/129/5 113/138/5
f 68/139/5 121/132/5 122/140/5
f 6/141/4 93/134/4 94/142/4
f 26/143/5 113/138/5 114/144/5
f 7/145/3 90/6/3 95/146/3
f 27/147/5 114/144/5 115/148/5
f 3/149/2 119/150/2 91/151/2
f 8/152/3 95/146/3 96/153/3
f 28/154/5 115/148/5 116/111/5
f 43/155/2 120/156/2 119/150/2
f 9/157/3 96/153/3 97/158/3
f 44/159/4 118/117/4 120/160/4
f 15/161/2 89/162/2 103/88/2
f 29/163/4 109/164/4 117/116/4
f 10/165/3 97/158/3 98/91/3
f 88/1/1 28/86/1 2/2/1
f 15/4/1 35/7/1 14/5/1
f 35/7/1 42/9/1 13/8/1
f 42/9/1 50/11/1 12/10/1
f 50/11/1 58/13/1 11/12/1
f 58/13/1 66/15/1 10/14/1
f 66/15/1 74/17/1 9/16/1
f 74/17/1 81/19/1 8/18/1
f 81/19/1 88/1/1 7/3/1
f 75/20/1 82/80/1 83/21/1
f 76/22/1 83/21/1 84/23/1
f 77/24/1 84/23/1 85/25/1
f 78/26/1 85/25/1 86/27/1
f 79/28/1 86/27/1 87/29/1
f 80/30/1 87/29/1 88/1/1
f 68/31/1 75/20/1 76/22/1
f 69/32/1 76/22/1 77/24/1
f 70/33/1 77/24/1 78/26/1
f 71/34/1 78/26/1 79/28/1
f 72/35/1 79/28/1 80/30/1
f 73/36/1 80/30/1 81/19/1
f 5/37/1 6/166/1 67/38/1
f 59/39/1 67/38/1 68/31/1
f 60/40/1 68/31/1 69/32/1
f 61/41/1 69/32/1 70/33/1
f 62/42/1 70/33/1 71/34/1
f 63/43/1 71/34/1 72/35/1
f 64/44/1 72/35/1 73/36/1
f 65/45/1 73/36/1 74/17/1
f 4/46/1 5/37/1 59/39/1
f 51/47/1 59/39/1 60/40/1
f 52/48/1 60/40/1 61/41/1
f 53/49/1 61/41/1 62/42/1
f 54/50/1 62/42/1 63/43/1
f 55/51/1 63/43/1 64/44/1
f 56/52/1 64/44/1 65/45/1
f 57/53/1 65/45/1 66/15/1
f 3/54/1 4/46/1 51/47/1
f 43/55/1 51/47/1 52/48/1
f 44/56/1 52/48/1 53/49/1
f 45/57/1 53/49/1 54/50/1
f 46/58/1 54/50/1 55/51/1
f 47/59/1 55/51/1 56/52/1
f 48/60/1 56/52/1 57/53/1
f 49/61/1 57/53/1 58/13/1
f 36/62/1 44/56/1 45/57/1
f 37/63/1 45/57/1 46/58/1
f 38/64/1 46/58/1 47/59/1
f 39/65/1 47/59/1 48/60/1
f 40/66/1 48/60/1 49/61/1
f 41/67/1 49/61/1 50/11/1
f 29/68/1 36/62/1 37/63/1
f 30/69/1 37/63/1 38/64/1
f 31/70/1 38/64/1 39/65/1
f 32/71/1 39/65/1 40/66/1
f 33/72/1 40/66/1 41/67/1
f 34/73/1 41/67/1 42/9/1
f 21/74/1 29/68/1 30/69/1
f 20/75/1 30/69/1 31/70/1
f 19/76/1 31/70/1 32/71/1
f 18/77/1 32/71/1 33/72/1
f 17/78/1 33/72/1 34/73/1
f 16/79/1 34/73/1 35/7/1
f 82/80/1 22/167/1 23/81/1
f 83/21/1 23/81/1 24/82/1
f 84/23/1 24/82/1 25/83/1
f 85/25/1 25/83/1 26/84/1
f 86/27/1 26/84/1 27/85/1
f 87/29/1 27/85/1 28/86/1
f 16/87/2 15/161/2 103/88/2
f 11/90/3 10/165/3 98/91/3
f 82/93/4 75/135/4 123/94/4
f 17/96/2 16/87/2 104/89/2
f 12/98/3 11/90/3 99/92/3
f 18/100/2 17/96/2 105/97/2
f 13/102/3 12/98/3 100/99/3
f 19/104/2 18/100/2 106/101/2
f 14/106/3 13/102/3 101/103/3
f 20/108/2 19/104/2 107/105/2
f 2/110/5 28/154/5 116/111/5
f 21/113/2 20/108/2 108/109/2
f 36/115/4 29/163/4 117/116/4
f 1/118/3 14/106/3 102/107/3
f 23/120/5 22/168/5 110/121/5
f 22/123/4 82/93/4 124/95/4
f 4/125/4 3/169/4 91/126/4
f 24/128/5 23/120/5 111/122/5
f 67/130/5 6/170/5 94/131/5
f 5/133/4 4/125/4 92/127/4
f 75/135/4 68/171/4 122/136/4
f 25/137/5 24/128/5 112/129/5
f 68/139/5 67/130/5 121/132/5
f 6/141/4 5/133/4 93/134/4
f 26/143/5 25/137/5 113/138/5
f 7/145/3 2/172/3 90/6/3
f 27/147/5 26/143/5 114/144/5
f 3/149/2 43/155/2 119/150/2
f 8/152/3 7/145/3 95/146/3
f 28/154/5 27/147/5 115/148/5
f 43/155/2 44/173/2 120/156/2
f 9/157/3 8/152/3 96/153/3
f 44/159/4 36/115/4 118/117/4
f 15/161/2 1/174/2 89/162/2
f 29/163/4 21/175/4 109/164/4
f 10/165/3 9/157/3 97/158/3
